<svg width="100" height="100" viewBox="0 0 100 100" fill="none" xmlns="http://www.w3.org/2000/svg">
<rect width="100" height="100" rx="15" fill="white"/>
<rect x="32.5" y="31" width="39" height="40.5" fill="#EEECE9"/>
<path d="M49.7813 48.125H44.1125V38.6312H50.8375C54.4937 38.6312 56.5688 40.2625 56.5688 43.2125C56.5688 46.3625 54.1531 48.125 49.775 48.125H49.7813ZM50.7937 51.8937H44.1156V62.3562H51.0875C55.6469 62.3562 58.0625 60.5281 58.0625 57.0906C58.0625 53.6531 55.5781 51.8937 50.7937 51.8937V51.8937ZM88 48.5937V52.4C84.475 52.7375 82.3219 55.35 81.0438 59.4875C79.7719 63.6094 79.5969 68.6656 79.7313 72.5687C79.8719 76.6312 76.7063 80.3812 72.4281 80.3812H28.5781C24.2969 80.3812 21.1313 76.6312 21.275 72.5687C21.4094 68.6656 21.2344 63.6094 19.9625 59.4875C18.6812 55.35 16.525 52.7375 13 52.4V48.5937C16.525 48.2562 18.6844 45.6437 19.9594 41.5062C21.2344 37.3844 21.4094 32.3281 21.2719 28.425C21.1313 24.3625 24.2969 20.6125 28.5781 20.6125H72.4281C76.7094 20.6125 79.8719 24.3625 79.7313 28.425C79.5969 32.3281 79.7719 37.3844 81.0438 41.5062C82.3219 45.6437 84.475 48.2562 88 48.5937ZM63.2281 57.3969C63.2281 53.1656 60.25 50.1062 55.8281 49.6219V49.4437C59.0781 48.9156 61.6281 45.8969 61.6281 42.5281C61.6281 37.725 57.8375 34.5969 52.0594 34.5969H39.0594V66.3844H52.125C59.0563 66.3844 63.2281 62.9906 63.2281 57.3969V57.3969Z" fill="#7952B3"/>
</svg>
