<svg width="100" height="100" viewBox="0 0 100 100" fill="none" xmlns="http://www.w3.org/2000/svg">
<rect width="100" height="100" rx="15" fill="white"/>
<g clip-path="url(#clip0_318_18)">
<path d="M40.002 79.3103C45.5209 79.3103 50 74.8818 50 69.4253V59.5402H40.002C34.4831 59.5402 30.004 63.9687 30.004 69.4253C30.004 74.8818 34.4831 79.3103 40.002 79.3103Z" fill="#0ACF83"/>
<path d="M30.004 49.6552C30.004 44.1986 34.4831 39.7701 40.002 39.7701H50V59.5402H40.002C34.4831 59.5402 30.004 55.1117 30.004 49.6552Z" fill="#A259FF"/>
<path d="M30.0029 29.8851C30.0029 24.4285 34.482 20 40.0009 20H49.9989V39.7701H40.0009C34.482 39.7701 30.0029 35.3416 30.0029 29.8851Z" fill="#F24E1E"/>
<path d="M50 20H59.998C65.5169 20 69.996 24.4285 69.996 29.8851C69.996 35.3416 65.5169 39.7701 59.998 39.7701H50V20Z" fill="#FF7262"/>
<path d="M69.996 49.6552C69.996 55.1117 65.5169 59.5402 59.998 59.5402C54.4791 59.5402 50 55.1117 50 49.6552C50 44.1986 54.4791 39.7701 59.998 39.7701C65.5169 39.7701 69.996 44.1986 69.996 49.6552Z" fill="#1ABCFE"/>
</g>
<defs>
<clipPath id="clip0_318_18">
<rect width="40" height="59.3103" fill="white" transform="translate(30 20)"/>
</clipPath>
</defs>
</svg>
