<svg width="100" height="100" viewBox="0 0 100 100" fill="none" xmlns="http://www.w3.org/2000/svg">
<rect width="100" height="100" rx="15" fill="white"/>
<path d="M57.4688 50.5125C57.4688 52.3652 56.733 54.142 55.4233 55.4523C54.1135 56.7626 52.337 57.4992 50.4844 57.5C48.6312 57.5 46.8539 56.7638 45.5435 55.4534C44.2331 54.143 43.4969 52.3657 43.4969 50.5125C43.4969 48.6599 44.2326 46.883 45.5424 45.5727C46.8521 44.2624 48.6286 43.5258 50.4813 43.525C52.3345 43.525 54.1117 44.2612 55.4222 45.5716C56.7326 46.882 57.4687 48.6593 57.4688 50.5125ZM65.7438 17.1063C61.5375 17.1063 56.0344 20.1063 50.4688 25.3C44.9062 20.1344 39.4 17.1688 35.1969 17.1688C33.9156 17.1688 32.75 17.4594 31.7406 18.0375C27.4438 20.5156 26.4813 28.2375 28.7 37.9281C19.1875 40.8656 13 45.5625 13 50.5125C13 55.4813 19.2188 60.1906 28.7594 63.1063C26.5594 72.8344 27.5406 80.5688 31.8469 83.0438C32.8469 83.6281 34.0031 83.9031 35.2906 83.9031C39.4937 83.9031 45 80.9031 50.5656 75.7031C56.1281 80.8719 61.6344 83.8375 65.8375 83.8375C67.1188 83.8375 68.2844 83.5563 69.2938 82.9781C73.5875 80.5031 74.5531 72.7813 72.3344 63.0875C81.8125 60.175 88 55.4688 88 50.5125C88 45.5438 81.7813 40.8344 72.2406 37.9125C74.4406 28.1938 73.4594 20.4531 69.1531 17.975C68.1594 17.4 67.0031 17.1094 65.7406 17.1063H65.7438ZM65.7281 20.5125V20.5313C66.4312 20.5313 66.9969 20.6688 67.4719 20.9281C69.5531 22.1219 70.4562 26.6625 69.7531 32.5031C69.5844 33.9406 69.3094 35.4563 68.9719 37.0031C65.9719 36.2656 62.7031 35.7 59.2625 35.3344C57.2 32.5063 55.0594 29.9375 52.9031 27.6875C57.8781 23.0625 62.55 20.525 65.7313 20.5156L65.7281 20.5125ZM35.1969 20.575C38.3594 20.575 43.0531 23.1 48.0406 27.7C45.8969 29.95 43.7594 32.5031 41.7281 35.3313C38.2687 35.6969 34.9969 36.2625 32 37.0125C31.65 35.4813 31.3906 34 31.2063 32.575C30.4875 26.7375 31.375 22.2 33.4375 20.9906C34.0312 20.7094 34.6875 20.5938 35.1969 20.5781V20.575ZM50.4531 30.1063C51.875 31.5688 53.2969 33.2063 54.7031 34.9938C53.3281 34.9313 51.9219 34.8875 50.5 34.8875C49.0625 34.8875 47.6406 34.9188 46.25 34.9938C47.625 33.2063 49.0469 31.5688 50.4531 30.1031V30.1063ZM50.5 38.3125C52.8125 38.3125 55.1156 38.4188 57.3812 38.6031C58.65 40.4219 59.8875 42.3625 61.0781 44.4156C62.2406 46.4156 63.2969 48.4469 64.2594 50.4969C63.2969 52.5438 62.2406 54.5906 61.0938 56.5906C59.9062 58.6531 58.6781 60.6156 57.4062 62.4344C55.1313 62.6313 52.825 62.7406 50.5 62.7406C48.1875 62.7406 45.8844 62.6313 43.6188 62.45C42.35 60.6313 41.1125 58.6875 39.9219 56.6375C38.7594 54.6375 37.7031 52.6063 36.7406 50.5563C37.6875 48.5031 38.7594 46.4531 39.9062 44.45C41.0937 42.3875 42.3219 40.4313 43.5938 38.6125C45.8687 38.4125 48.175 38.3063 50.5 38.3063V38.3125ZM39.1406 39.1063C38.3906 40.2844 37.6406 41.4906 36.9406 42.7313C36.2375 43.95 35.5812 45.175 34.9562 46.4C34.1281 44.35 33.425 42.3063 32.8438 40.3156C34.8438 39.8469 36.9531 39.4313 39.1406 39.1094V39.1063ZM61.8281 39.1063C64 39.4281 66.0938 39.825 68.0969 40.3156C67.5344 42.2906 66.8313 44.3219 66.0344 46.3563C65.4094 45.1375 64.7531 43.9094 64.0344 42.6875C63.3312 41.4625 62.5813 40.2688 61.8313 39.1063H61.8281ZM71.4 41.2156C72.9125 41.6844 74.35 42.2063 75.6969 42.7719C81.1094 45.0844 84.6094 48.1094 84.6094 50.5094C84.5938 52.9094 81.0938 55.9469 75.6813 58.2438C74.3688 58.8063 72.9312 59.3125 71.4469 59.7844C70.5719 56.7906 69.4281 53.6719 68.0094 50.4719C69.4156 47.2938 70.5406 44.1906 71.4 41.2094V41.2156ZM29.5406 41.2281C30.4094 44.2281 31.5562 47.3438 32.9781 50.5406C31.5719 53.7188 30.4406 56.8219 29.5844 59.8031C28.0719 59.3344 26.6344 58.8094 25.3031 58.2406C19.8906 55.9375 16.3906 52.9094 16.3906 50.5094C16.3906 48.1094 19.8906 45.0656 25.3031 42.7719C26.6156 42.2094 28.0531 41.7031 29.5406 41.2281ZM66.0344 54.6031C66.8625 56.6563 67.5656 58.7031 68.1469 60.6906C66.1469 61.1813 64.0344 61.5969 61.8469 61.9094C62.5969 60.7375 63.3469 59.5281 64.05 58.2906C64.7531 57.0719 65.4094 55.8281 66.0375 54.6031H66.0344ZM34.9562 54.6656C35.5812 55.8906 36.2375 57.1125 36.9562 58.3375C37.675 59.5563 38.4094 60.75 39.1594 61.9094C36.9875 61.5906 34.8937 61.1906 32.8906 60.7031C33.4531 58.7344 34.1594 56.6969 34.9531 54.6625L34.9562 54.6656ZM69 64C69.35 65.5406 69.625 67.025 69.7938 68.4469C70.5125 74.2844 69.625 78.8219 67.5625 80.0344C67.1031 80.3156 66.5062 80.4344 65.8031 80.4344C62.6406 80.4344 57.9469 77.9125 52.9594 73.3094C55.1031 71.0594 57.2406 68.5094 59.2719 65.6844C62.7313 65.3156 66.0031 64.7469 69 63.9969V64ZM32.0312 64.0313C35.0312 64.7625 38.3 65.3281 41.7406 65.6938C43.8031 68.5219 45.9438 71.0906 48.1 73.3375C43.1156 77.9719 38.4375 80.5094 35.2563 80.5094C34.5688 80.4938 33.9875 80.3531 33.5281 80.0969C31.4469 78.9094 30.5438 74.3656 31.2469 68.525C31.4156 67.0875 31.6906 65.575 32.0281 64.0313H32.0312ZM46.2812 66.0313C47.6562 66.0938 49.0625 66.1375 50.4844 66.1375C51.9219 66.1375 53.3438 66.1063 54.7344 66.0313C53.3594 67.8188 51.9375 69.4531 50.5312 70.9219C49.1094 69.4531 47.6875 67.8188 46.2812 66.0313Z" fill="#61DAFB"/>
</svg>
