<svg width="425" height="427" viewBox="0 0 425 427" fill="none" xmlns="http://www.w3.org/2000/svg">
<circle cx="200" cy="227" r="199" stroke="url(#paint0_linear_140_2)" stroke-width="2"/>
<path d="M126.66 224.297C126.68 225.117 126.914 225.859 127.363 226.523C127.832 227.168 128.438 227.783 129.18 228.369C129.941 228.955 130.801 229.531 131.758 230.098C132.715 230.645 133.691 231.23 134.688 231.855C135.703 232.461 136.689 233.125 137.646 233.848C138.604 234.57 139.463 235.391 140.225 236.309C140.986 237.227 141.602 238.262 142.07 239.414C142.539 240.566 142.793 241.875 142.832 243.34V243.574C142.832 245.176 142.637 246.572 142.246 247.764C141.855 248.955 141.338 249.98 140.693 250.84C140.049 251.699 139.297 252.412 138.438 252.979C137.578 253.525 136.67 253.965 135.713 254.297C134.775 254.629 133.818 254.863 132.842 255C131.885 255.137 130.977 255.215 130.117 255.234H129.824C128.164 255.234 126.709 255.068 125.459 254.736C124.209 254.404 123.135 253.965 122.236 253.418C121.338 252.852 120.586 252.207 119.98 251.484C119.395 250.762 118.926 250.02 118.574 249.258C118.223 248.477 117.969 247.705 117.812 246.943C117.656 246.182 117.578 245.469 117.578 244.805C117.578 244.121 117.695 243.525 117.93 243.018C118.164 242.51 118.467 242.1 118.838 241.787C119.229 241.455 119.668 241.211 120.156 241.055C120.664 240.898 121.191 240.82 121.738 240.82C122.246 240.82 122.764 240.898 123.291 241.055C123.838 241.211 124.326 241.455 124.756 241.787C125.205 242.1 125.566 242.51 125.84 243.018C126.133 243.506 126.289 244.082 126.309 244.746C126.348 246.211 126.68 247.217 127.305 247.764C127.93 248.291 128.828 248.555 130 248.555C130.586 248.535 131.123 248.467 131.611 248.35C132.119 248.213 132.549 247.988 132.9 247.676C133.252 247.344 133.525 246.914 133.721 246.387C133.936 245.84 134.043 245.156 134.043 244.336C134.043 243.32 133.809 242.402 133.34 241.582C132.891 240.762 132.295 240 131.553 239.297C130.811 238.594 129.961 237.93 129.004 237.305C128.047 236.66 127.07 236.025 126.074 235.4C125.078 234.756 124.102 234.092 123.145 233.408C122.207 232.705 121.357 231.943 120.596 231.123C119.834 230.303 119.219 229.395 118.75 228.398C118.301 227.402 118.066 226.27 118.047 225V224.531C118.066 222.441 118.34 220.703 118.867 219.316C119.414 217.93 120.205 216.826 121.24 216.006C122.295 215.186 123.584 214.609 125.107 214.277C126.631 213.926 128.379 213.75 130.352 213.75H131.113C132.91 213.75 134.434 213.945 135.684 214.336C136.934 214.727 137.969 215.225 138.789 215.83C139.629 216.436 140.283 217.119 140.752 217.881C141.24 218.643 141.602 219.395 141.836 220.137C142.07 220.879 142.217 221.572 142.275 222.217C142.334 222.861 142.363 223.379 142.363 223.77C142.363 224.355 142.246 224.893 142.012 225.381C141.797 225.85 141.494 226.25 141.104 226.582C140.732 226.914 140.283 227.178 139.756 227.373C139.248 227.549 138.691 227.637 138.086 227.637C137.617 227.637 137.148 227.549 136.68 227.373C136.211 227.178 135.791 226.934 135.42 226.641C135.049 226.348 134.746 226.016 134.512 225.645C134.277 225.254 134.16 224.863 134.16 224.473C134.16 222.871 133.867 221.758 133.281 221.133C132.715 220.508 131.875 220.195 130.762 220.195C130.234 220.195 129.717 220.225 129.209 220.283C128.721 220.342 128.281 220.508 127.891 220.781C127.52 221.035 127.217 221.436 126.982 221.982C126.768 222.529 126.66 223.301 126.66 224.297ZM148.809 220.664C148.809 219.824 148.848 219.004 148.926 218.203C149.004 217.402 149.189 216.689 149.482 216.064C149.775 215.439 150.215 214.941 150.801 214.57C151.387 214.18 152.188 213.984 153.203 213.984C154.238 213.984 155.059 214.18 155.664 214.57C156.27 214.941 156.719 215.439 157.012 216.064C157.324 216.689 157.52 217.402 157.598 218.203C157.676 219.004 157.715 219.824 157.715 220.664V231.211H161.055C161.699 229.531 162.344 227.881 162.988 226.26C163.262 225.576 163.545 224.873 163.838 224.15C164.131 223.408 164.414 222.686 164.688 221.982C164.98 221.279 165.254 220.605 165.508 219.961C165.781 219.297 166.035 218.711 166.27 218.203C166.504 217.656 166.748 217.129 167.002 216.621C167.275 216.113 167.588 215.664 167.939 215.273C168.291 214.883 168.682 214.57 169.111 214.336C169.561 214.102 170.078 213.984 170.664 213.984C171.23 213.984 171.787 214.072 172.334 214.248C172.881 214.424 173.369 214.688 173.799 215.039C174.229 215.391 174.57 215.82 174.824 216.328C175.098 216.836 175.234 217.422 175.234 218.086C175.234 218.594 175.146 219.199 174.971 219.902C174.814 220.586 174.59 221.27 174.297 221.953L169.023 234.434C170.039 234.805 170.938 235.41 171.719 236.25C172.051 236.602 172.373 237.031 172.686 237.539C173.018 238.027 173.311 238.604 173.564 239.268C173.818 239.932 174.023 240.693 174.18 241.553C174.336 242.393 174.414 243.34 174.414 244.395V248.555C174.414 248.77 174.492 248.945 174.648 249.082C174.805 249.219 174.961 249.375 175.117 249.551C175.508 250 175.732 250.391 175.791 250.723C175.85 251.055 175.879 251.328 175.879 251.543C175.879 252.246 175.742 252.832 175.469 253.301C175.215 253.77 174.863 254.15 174.414 254.443C173.984 254.736 173.477 254.941 172.891 255.059C172.324 255.176 171.738 255.234 171.133 255.234C170.488 255.234 169.834 255.137 169.17 254.941C168.506 254.746 167.9 254.453 167.354 254.062C166.807 253.652 166.357 253.145 166.006 252.539C165.674 251.934 165.508 251.23 165.508 250.43V244.395C165.508 243.555 165.449 242.773 165.332 242.051C165.215 241.309 164.99 240.674 164.658 240.146C164.326 239.6 163.867 239.18 163.281 238.887C162.695 238.574 161.934 238.418 160.996 238.418H157.715V248.262C157.715 249.121 157.676 249.951 157.598 250.752C157.52 251.553 157.324 252.275 157.012 252.92C156.719 253.545 156.27 254.053 155.664 254.443C155.059 254.814 154.238 255 153.203 255C152.188 255 151.387 254.814 150.801 254.443C150.215 254.053 149.775 253.545 149.482 252.92C149.189 252.275 149.004 251.553 148.926 250.752C148.848 249.951 148.809 249.121 148.809 248.262V220.664ZM183.086 220.723C183.086 219.883 183.125 219.062 183.203 218.262C183.301 217.461 183.506 216.748 183.818 216.123C184.15 215.479 184.639 214.961 185.283 214.57C185.928 214.18 186.816 213.984 187.949 213.984C189.082 213.984 189.971 214.18 190.615 214.57C191.26 214.961 191.738 215.479 192.051 216.123C192.383 216.748 192.588 217.461 192.666 218.262C192.764 219.062 192.812 219.883 192.812 220.723V248.262C192.812 249.121 192.773 249.951 192.695 250.752C192.617 251.553 192.412 252.275 192.08 252.92C191.768 253.545 191.279 254.053 190.615 254.443C189.971 254.814 189.082 255 187.949 255C186.816 255 185.928 254.814 185.283 254.443C184.639 254.053 184.15 253.545 183.818 252.92C183.506 252.275 183.301 251.553 183.203 250.752C183.125 249.951 183.086 249.121 183.086 248.262V220.723ZM202.891 220.723C202.891 219.883 202.93 219.062 203.008 218.262C203.086 217.461 203.271 216.748 203.564 216.123C203.877 215.479 204.326 214.961 204.912 214.57C205.498 214.18 206.309 213.984 207.344 213.984C208.457 213.984 209.326 214.18 209.951 214.57C210.576 214.961 211.035 215.479 211.328 216.123C211.621 216.748 211.797 217.461 211.855 218.262C211.934 219.062 211.973 219.883 211.973 220.723V246.387H217.715C218.516 246.387 219.307 246.426 220.088 246.504C220.869 246.582 221.562 246.768 222.168 247.061C222.793 247.354 223.291 247.783 223.662 248.35C224.033 248.916 224.219 249.688 224.219 250.664C224.219 251.66 224.033 252.451 223.662 253.037C223.291 253.604 222.793 254.033 222.168 254.326C221.562 254.619 220.869 254.805 220.088 254.883C219.307 254.961 218.516 255 217.715 255H209.395C208.359 255 207.441 254.961 206.641 254.883C205.84 254.805 205.156 254.619 204.59 254.326C204.043 254.033 203.623 253.604 203.33 253.037C203.037 252.451 202.891 251.66 202.891 250.664V220.723ZM231.25 220.723C231.25 219.883 231.289 219.062 231.367 218.262C231.445 217.461 231.631 216.748 231.924 216.123C232.236 215.479 232.686 214.961 233.271 214.57C233.857 214.18 234.668 213.984 235.703 213.984C236.816 213.984 237.686 214.18 238.311 214.57C238.936 214.961 239.395 215.479 239.688 216.123C239.98 216.748 240.156 217.461 240.215 218.262C240.293 219.062 240.332 219.883 240.332 220.723V246.387H246.074C246.875 246.387 247.666 246.426 248.447 246.504C249.229 246.582 249.922 246.768 250.527 247.061C251.152 247.354 251.65 247.783 252.021 248.35C252.393 248.916 252.578 249.688 252.578 250.664C252.578 251.66 252.393 252.451 252.021 253.037C251.65 253.604 251.152 254.033 250.527 254.326C249.922 254.619 249.229 254.805 248.447 254.883C247.666 254.961 246.875 255 246.074 255H237.754C236.719 255 235.801 254.961 235 254.883C234.199 254.805 233.516 254.619 232.949 254.326C232.402 254.033 231.982 253.604 231.689 253.037C231.396 252.451 231.25 251.66 231.25 250.664V220.723ZM266.055 224.297C266.074 225.117 266.309 225.859 266.758 226.523C267.227 227.168 267.832 227.783 268.574 228.369C269.336 228.955 270.195 229.531 271.152 230.098C272.109 230.645 273.086 231.23 274.082 231.855C275.098 232.461 276.084 233.125 277.041 233.848C277.998 234.57 278.857 235.391 279.619 236.309C280.381 237.227 280.996 238.262 281.465 239.414C281.934 240.566 282.188 241.875 282.227 243.34V243.574C282.227 245.176 282.031 246.572 281.641 247.764C281.25 248.955 280.732 249.98 280.088 250.84C279.443 251.699 278.691 252.412 277.832 252.979C276.973 253.525 276.064 253.965 275.107 254.297C274.17 254.629 273.213 254.863 272.236 255C271.279 255.137 270.371 255.215 269.512 255.234H269.219C267.559 255.234 266.104 255.068 264.854 254.736C263.604 254.404 262.529 253.965 261.631 253.418C260.732 252.852 259.98 252.207 259.375 251.484C258.789 250.762 258.32 250.02 257.969 249.258C257.617 248.477 257.363 247.705 257.207 246.943C257.051 246.182 256.973 245.469 256.973 244.805C256.973 244.121 257.09 243.525 257.324 243.018C257.559 242.51 257.861 242.1 258.232 241.787C258.623 241.455 259.062 241.211 259.551 241.055C260.059 240.898 260.586 240.82 261.133 240.82C261.641 240.82 262.158 240.898 262.686 241.055C263.232 241.211 263.721 241.455 264.15 241.787C264.6 242.1 264.961 242.51 265.234 243.018C265.527 243.506 265.684 244.082 265.703 244.746C265.742 246.211 266.074 247.217 266.699 247.764C267.324 248.291 268.223 248.555 269.395 248.555C269.98 248.535 270.518 248.467 271.006 248.35C271.514 248.213 271.943 247.988 272.295 247.676C272.646 247.344 272.92 246.914 273.115 246.387C273.33 245.84 273.438 245.156 273.438 244.336C273.438 243.32 273.203 242.402 272.734 241.582C272.285 240.762 271.689 240 270.947 239.297C270.205 238.594 269.355 237.93 268.398 237.305C267.441 236.66 266.465 236.025 265.469 235.4C264.473 234.756 263.496 234.092 262.539 233.408C261.602 232.705 260.752 231.943 259.99 231.123C259.229 230.303 258.613 229.395 258.145 228.398C257.695 227.402 257.461 226.27 257.441 225V224.531C257.461 222.441 257.734 220.703 258.262 219.316C258.809 217.93 259.6 216.826 260.635 216.006C261.689 215.186 262.979 214.609 264.502 214.277C266.025 213.926 267.773 213.75 269.746 213.75H270.508C272.305 213.75 273.828 213.945 275.078 214.336C276.328 214.727 277.363 215.225 278.184 215.83C279.023 216.436 279.678 217.119 280.146 217.881C280.635 218.643 280.996 219.395 281.23 220.137C281.465 220.879 281.611 221.572 281.67 222.217C281.729 222.861 281.758 223.379 281.758 223.77C281.758 224.355 281.641 224.893 281.406 225.381C281.191 225.85 280.889 226.25 280.498 226.582C280.127 226.914 279.678 227.178 279.15 227.373C278.643 227.549 278.086 227.637 277.48 227.637C277.012 227.637 276.543 227.549 276.074 227.373C275.605 227.178 275.186 226.934 274.814 226.641C274.443 226.348 274.141 226.016 273.906 225.645C273.672 225.254 273.555 224.863 273.555 224.473C273.555 222.871 273.262 221.758 272.676 221.133C272.109 220.508 271.27 220.195 270.156 220.195C269.629 220.195 269.111 220.225 268.604 220.283C268.115 220.342 267.676 220.508 267.285 220.781C266.914 221.035 266.611 221.436 266.377 221.982C266.162 222.529 266.055 223.301 266.055 224.297Z" fill="#27CA54"/>
<g filter="url(#filter0_d_140_2)">
<rect x="93" y="6" width="75" height="75" rx="15" fill="white"/>
<path d="M134.646 44.0084C134.646 45.2435 134.155 46.428 133.282 47.3016C132.409 48.1751 131.225 48.6662 129.99 48.6667C128.754 48.6667 127.569 48.1759 126.696 47.3023C125.822 46.4287 125.331 45.2439 125.331 44.0084C125.331 42.7733 125.822 41.5887 126.695 40.7152C127.568 39.8416 128.752 39.3506 129.987 39.35C131.223 39.35 132.408 39.8408 133.281 40.7144C134.155 41.5881 134.646 42.7729 134.646 44.0084ZM140.162 21.7375C137.358 21.7375 133.69 23.7375 129.979 27.2C126.271 23.7563 122.6 21.7792 119.798 21.7792C118.944 21.7792 118.167 21.973 117.494 22.3584C114.629 24.0105 113.988 29.1584 115.467 35.6188C109.125 37.5771 105 40.7084 105 44.0084C105 47.3209 109.146 50.4605 115.506 52.4042C114.04 58.8896 114.694 64.0459 117.565 65.6959C118.231 66.0855 119.002 66.2688 119.86 66.2688C122.662 66.2688 126.333 64.2688 130.044 60.8021C133.752 64.248 137.423 66.2251 140.225 66.2251C141.079 66.2251 141.856 66.0376 142.529 65.6521C145.392 64.0021 146.035 58.8542 144.556 52.3917C150.875 50.4501 155 47.3125 155 44.0084C155 40.6959 150.854 37.5563 144.494 35.6084C145.96 29.1292 145.306 23.9688 142.435 22.3167C141.773 21.9334 141.002 21.7396 140.16 21.7375H140.162ZM140.152 24.0084V24.0209C140.621 24.0209 140.998 24.1125 141.315 24.2855C142.702 25.0813 143.304 28.1084 142.835 32.0021C142.723 32.9605 142.54 33.9709 142.315 35.0021C140.315 34.5105 138.135 34.1334 135.842 33.8896C134.467 32.0042 133.04 30.2917 131.602 28.7917C134.919 25.7084 138.033 24.0167 140.154 24.0105L140.152 24.0084ZM119.798 24.05C121.906 24.05 125.035 25.7334 128.36 28.8C126.931 30.3 125.506 32.0021 124.152 33.8875C121.846 34.1313 119.665 34.5084 117.667 35.0084C117.433 33.9875 117.26 33 117.137 32.05C116.658 28.1584 117.25 25.1334 118.625 24.3271C119.021 24.1396 119.458 24.0625 119.798 24.0521V24.05ZM129.969 30.4042C130.917 31.3792 131.865 32.4709 132.802 33.6625C131.885 33.6209 130.948 33.5917 130 33.5917C129.042 33.5917 128.094 33.6125 127.167 33.6625C128.083 32.4709 129.031 31.3792 129.969 30.4021V30.4042ZM130 35.8751C131.542 35.8751 133.077 35.9459 134.587 36.0688C135.433 37.2813 136.258 38.5751 137.052 39.9438C137.827 41.2771 138.531 42.6313 139.173 43.998C138.531 45.3625 137.827 46.7271 137.062 48.0605C136.271 49.4355 135.452 50.7438 134.604 51.9563C133.087 52.0876 131.55 52.1605 130 52.1605C128.458 52.1605 126.923 52.0876 125.413 51.9667C124.567 50.7542 123.742 49.4584 122.948 48.0917C122.173 46.7584 121.469 45.4042 120.827 44.0375C121.458 42.6688 122.173 41.3021 122.937 39.9667C123.729 38.5917 124.548 37.2875 125.396 36.075C126.912 35.9417 128.45 35.8709 130 35.8709V35.8751ZM122.427 36.4042C121.927 37.1896 121.427 37.9938 120.96 38.8209C120.492 39.6334 120.054 40.4501 119.637 41.2667C119.085 39.9 118.617 38.5375 118.229 37.2105C119.562 36.898 120.969 36.6209 122.427 36.4063V36.4042ZM137.552 36.4042C139 36.6188 140.396 36.8834 141.731 37.2105C141.356 38.5271 140.888 39.8813 140.356 41.2375C139.94 40.425 139.502 39.6063 139.023 38.7917C138.554 37.975 138.054 37.1792 137.554 36.4042H137.552ZM143.933 37.8105C144.942 38.123 145.9 38.4709 146.798 38.848C150.406 40.3896 152.74 42.4063 152.74 44.0063C152.729 45.6063 150.396 47.6313 146.787 49.1625C145.912 49.5375 144.954 49.875 143.965 50.1896C143.381 48.1938 142.619 46.1146 141.673 43.9813C142.61 41.8626 143.36 39.7938 143.933 37.8063V37.8105ZM116.027 37.8188C116.606 39.8188 117.371 41.8959 118.319 44.0271C117.381 46.1459 116.627 48.2146 116.056 50.2021C115.048 49.8896 114.09 49.5396 113.202 49.1605C109.594 47.6251 107.26 45.6063 107.26 44.0063C107.26 42.4063 109.594 40.3771 113.202 38.848C114.077 38.473 115.035 38.1355 116.027 37.8188ZM140.356 46.7355C140.908 48.1042 141.377 49.4688 141.765 50.7938C140.431 51.1209 139.023 51.398 137.565 51.6063C138.065 50.8251 138.565 50.0188 139.033 49.1938C139.502 48.3813 139.94 47.5521 140.358 46.7355H140.356ZM119.637 46.7771C120.054 47.5938 120.492 48.4084 120.971 49.2251C121.45 50.0376 121.94 50.8334 122.44 51.6063C120.992 51.3938 119.596 51.1271 118.26 50.8021C118.635 49.4896 119.106 48.1313 119.635 46.775L119.637 46.7771ZM142.333 53C142.567 54.0271 142.75 55.0167 142.862 55.9646C143.342 59.8563 142.75 62.8813 141.375 63.6896C141.069 63.8771 140.671 63.9563 140.202 63.9563C138.094 63.9563 134.965 62.2751 131.64 59.2063C133.069 57.7063 134.494 56.0063 135.848 54.123C138.154 53.8771 140.335 53.498 142.333 52.998V53ZM117.688 53.0209C119.688 53.5084 121.867 53.8855 124.16 54.1292C125.535 56.0146 126.962 57.7271 128.4 59.2251C125.077 62.3146 121.958 64.0063 119.837 64.0063C119.379 63.9959 118.992 63.9021 118.685 63.7313C117.298 62.9396 116.696 59.9105 117.165 56.0167C117.277 55.0584 117.46 54.0501 117.685 53.0209H117.688ZM127.187 54.3542C128.104 54.3959 129.042 54.425 129.99 54.425C130.948 54.425 131.896 54.4042 132.823 54.3542C131.906 55.5459 130.958 56.6355 130.021 57.6146C129.073 56.6355 128.125 55.5459 127.187 54.3542Z" fill="#61DAFB"/>
</g>
<g filter="url(#filter1_d_140_2)">
<rect x="22" y="330" width="75" height="75" rx="15" fill="white"/>
<g clip-path="url(#clip0_140_2)">
<path d="M52.3562 389.461C56.3574 389.461 59.6048 386.25 59.6048 382.294V375.127H52.3562C48.355 375.127 45.1077 378.338 45.1077 382.294C45.1077 386.25 48.355 389.461 52.3562 389.461Z" fill="#0ACF83"/>
<path d="M45.1077 367.96C45.1077 364.004 48.355 360.794 52.3562 360.794H59.6048V375.127H52.3562C48.355 375.127 45.1077 371.916 45.1077 367.96Z" fill="#A259FF"/>
<path d="M45.1077 353.627C45.1077 349.671 48.355 346.46 52.3562 346.46H59.6048V360.794H52.3562C48.355 360.794 45.1077 357.583 45.1077 353.627Z" fill="#F24E1E"/>
<path d="M59.6047 346.46H66.8533C70.8545 346.46 74.1018 349.671 74.1018 353.627C74.1018 357.583 70.8545 360.794 66.8533 360.794H59.6047V346.46Z" fill="#FF7262"/>
<path d="M74.1018 367.96C74.1018 371.916 70.8545 375.127 66.8533 375.127C62.8521 375.127 59.6047 371.916 59.6047 367.96C59.6047 364.004 62.8521 360.794 66.8533 360.794C70.8545 360.794 74.1018 364.004 74.1018 367.96Z" fill="#1ABCFE"/>
</g>
</g>
<g filter="url(#filter2_d_140_2)">
<rect x="340" y="255" width="75" height="75" rx="15" fill="white"/>
<g clip-path="url(#clip1_140_2)">
<path d="M401.087 290.775C401.084 290.775 401.084 290.774 401.084 290.774L379.212 268.887C378.031 267.704 375.966 267.705 374.791 268.886L352.913 290.775C352.326 291.366 352 292.151 352 292.985C352 293.82 352.326 294.605 352.916 295.196L374.788 317.083C375.378 317.674 376.164 318 377 318C377.836 318 378.622 317.674 379.209 317.084L401.084 295.196C401.674 294.605 402 293.82 402 292.985C402 292.151 401.674 291.366 401.087 290.775Z" fill="#EF473B"/>
<path opacity="0.1" d="M401.335 294.437L379.233 316.554C378.638 317.15 377.845 317.479 377 317.479C376.155 317.479 375.362 317.15 374.766 316.552L352.665 294.437C352.406 294.179 352.209 293.878 352.056 293.558C352.17 294.174 352.463 294.743 352.916 295.196L374.789 317.083C375.379 317.674 376.164 318 377 318C377.836 318 378.622 317.674 379.21 317.084L401.085 295.196C401.537 294.743 401.83 294.174 401.944 293.558C401.791 293.878 401.594 294.179 401.335 294.437Z" fill="#010101"/>
<path d="M387.417 288.833C386.636 288.833 385.912 289.063 385.287 289.438L380.562 284.713C380.937 284.088 381.167 283.364 381.167 282.583C381.167 280.285 379.297 278.417 377 278.417C376.229 278.417 375.516 278.641 374.896 279.007L369.784 273.895L368.312 275.368L373.423 280.481C373.058 281.1 372.833 281.813 372.833 282.583C372.833 284.519 374.167 286.136 375.958 286.602V299.398C374.167 299.864 372.833 301.481 372.833 303.417C372.833 305.715 374.703 307.583 377 307.583C379.297 307.583 381.167 305.715 381.167 303.417C381.167 301.481 379.833 299.864 378.042 299.398V286.602C378.41 286.506 378.755 286.361 379.077 286.174L383.826 290.923C383.469 291.537 383.25 292.24 383.25 293C383.25 295.298 385.12 297.167 387.417 297.167C389.714 297.167 391.583 295.298 391.583 293C391.583 290.702 389.714 288.833 387.417 288.833Z" fill="white"/>
<path opacity="0.2" d="M352.913 291.296L374.791 269.407C375.966 268.226 378.031 268.225 379.212 269.408L401.084 291.295C401.084 291.295 401.084 291.296 401.087 291.296C401.612 291.825 401.914 292.511 401.975 293.245C401.982 293.158 402 293.073 402 292.985C402 292.151 401.674 291.366 401.087 290.775C401.084 290.775 401.084 290.774 401.084 290.774L379.212 268.887C378.031 267.704 375.966 267.705 374.791 268.886L352.913 290.775C352.326 291.366 352 292.151 352 292.985C352 293.073 352.018 293.158 352.025 293.245C352.087 292.511 352.388 291.824 352.913 291.296Z" fill="white"/>
<path d="M390.643 290.397C391.222 291.112 391.583 292.01 391.583 293C391.583 295.298 389.714 297.167 387.417 297.167C385.12 297.167 383.25 295.298 383.25 293C383.25 292.24 383.47 291.537 383.826 290.923L379.077 286.174C378.755 286.361 378.41 286.506 378.042 286.602V299.398C379.833 299.864 381.167 301.481 381.167 303.417C381.167 305.715 379.297 307.583 377 307.583C375.934 307.583 374.971 307.169 374.234 306.509L382.008 314.283L398.264 298.017L390.643 290.397ZM380.562 284.713L385.287 289.438C385.913 289.063 386.636 288.833 387.417 288.833C388.407 288.833 389.305 289.195 390.021 289.774L380.275 280.028L380.27 280.033C380.823 280.74 381.167 281.618 381.167 282.583C381.167 283.364 380.937 284.088 380.562 284.713Z" fill="url(#paint1_linear_140_2)"/>
<path d="M401.087 290.775C401.084 290.775 401.084 290.774 401.084 290.774L379.212 268.887C378.031 267.704 375.966 267.705 374.791 268.886L352.913 290.775C352.326 291.366 352 292.151 352 292.985C352 293.82 352.326 294.605 352.916 295.196L374.788 317.083C375.378 317.674 376.164 318 377 318C377.836 318 378.622 317.674 379.209 317.084L401.084 295.196C401.674 294.605 402 293.82 402 292.985C402 292.151 401.674 291.366 401.087 290.775Z" fill="url(#paint2_linear_140_2)"/>
</g>
</g>
<defs>
<filter id="filter0_d_140_2" x="83" y="0" width="95" height="95" filterUnits="userSpaceOnUse" color-interpolation-filters="sRGB">
<feFlood flood-opacity="0" result="BackgroundImageFix"/>
<feColorMatrix in="SourceAlpha" type="matrix" values="0 0 0 0 0 0 0 0 0 0 0 0 0 0 0 0 0 0 127 0" result="hardAlpha"/>
<feOffset dy="4"/>
<feGaussianBlur stdDeviation="5"/>
<feComposite in2="hardAlpha" operator="out"/>
<feColorMatrix type="matrix" values="0 0 0 0 0 0 0 0 0 0 0 0 0 0 0 0 0 0 0.08 0"/>
<feBlend mode="normal" in2="BackgroundImageFix" result="effect1_dropShadow_140_2"/>
<feBlend mode="normal" in="SourceGraphic" in2="effect1_dropShadow_140_2" result="shape"/>
</filter>
<filter id="filter1_d_140_2" x="12" y="324" width="95" height="95" filterUnits="userSpaceOnUse" color-interpolation-filters="sRGB">
<feFlood flood-opacity="0" result="BackgroundImageFix"/>
<feColorMatrix in="SourceAlpha" type="matrix" values="0 0 0 0 0 0 0 0 0 0 0 0 0 0 0 0 0 0 127 0" result="hardAlpha"/>
<feOffset dy="4"/>
<feGaussianBlur stdDeviation="5"/>
<feComposite in2="hardAlpha" operator="out"/>
<feColorMatrix type="matrix" values="0 0 0 0 0 0 0 0 0 0 0 0 0 0 0 0 0 0 0.08 0"/>
<feBlend mode="normal" in2="BackgroundImageFix" result="effect1_dropShadow_140_2"/>
<feBlend mode="normal" in="SourceGraphic" in2="effect1_dropShadow_140_2" result="shape"/>
</filter>
<filter id="filter2_d_140_2" x="330" y="249" width="95" height="95" filterUnits="userSpaceOnUse" color-interpolation-filters="sRGB">
<feFlood flood-opacity="0" result="BackgroundImageFix"/>
<feColorMatrix in="SourceAlpha" type="matrix" values="0 0 0 0 0 0 0 0 0 0 0 0 0 0 0 0 0 0 127 0" result="hardAlpha"/>
<feOffset dy="4"/>
<feGaussianBlur stdDeviation="5"/>
<feComposite in2="hardAlpha" operator="out"/>
<feColorMatrix type="matrix" values="0 0 0 0 0 0 0 0 0 0 0 0 0 0 0 0 0 0 0.08 0"/>
<feBlend mode="normal" in2="BackgroundImageFix" result="effect1_dropShadow_140_2"/>
<feBlend mode="normal" in="SourceGraphic" in2="effect1_dropShadow_140_2" result="shape"/>
</filter>
<linearGradient id="paint0_linear_140_2" x1="200" y1="27" x2="200" y2="427" gradientUnits="userSpaceOnUse">
<stop stop-color="#27CA54"/>
<stop offset="1" stop-color="#27CA54" stop-opacity="0.1"/>
</linearGradient>
<linearGradient id="paint1_linear_140_2" x1="372.144" y1="288.158" x2="390.139" y2="306.153" gradientUnits="userSpaceOnUse">
<stop stop-color="#010101" stop-opacity="0.1"/>
<stop offset="1" stop-color="#010101" stop-opacity="0"/>
</linearGradient>
<linearGradient id="paint2_linear_140_2" x1="356.195" y1="283.292" x2="397.799" y2="302.691" gradientUnits="userSpaceOnUse">
<stop stop-color="white" stop-opacity="0.2"/>
<stop offset="1" stop-color="white" stop-opacity="0"/>
</linearGradient>
<clipPath id="clip0_140_2">
<rect width="29" height="43" fill="white" transform="translate(45.1047 346.46)"/>
</clipPath>
<clipPath id="clip1_140_2">
<rect width="50" height="50" fill="white" transform="translate(352 268)"/>
</clipPath>
</defs>
</svg>
