<svg width="100" height="100" viewBox="0 0 100 100" fill="none" xmlns="http://www.w3.org/2000/svg">
<rect width="100" height="100" rx="15" fill="white"/>
<g clip-path="url(#clip0_318_25)">
<path d="M86.6298 47.1626C86.6267 47.1626 86.6267 47.1611 86.6267 47.1611L53.8173 14.3303C52.0472 12.5561 48.9497 12.5576 47.1858 14.3288L14.3702 47.1626C13.4883 48.0497 13 49.2269 13 50.4774C13 51.7294 13.4883 52.9079 14.3733 53.7935L47.1827 86.6243C48.0677 87.5114 49.2457 88.0001 50.5 88.0001C51.7543 88.0001 52.9323 87.5114 53.8142 86.6258L86.6267 53.7935C87.5117 52.9079 88 51.7294 88 50.4774C88 49.2269 87.5117 48.0497 86.6298 47.1626Z" fill="#EF473B"/>
<path opacity="0.1" d="M87.003 52.6559L53.8487 85.8303C52.9576 86.725 51.7672 87.2188 50.5 87.2188C49.2328 87.2188 48.0424 86.725 47.1482 85.8287L13.997 52.6559C13.6096 52.2682 13.3136 51.8173 13.0841 51.3364C13.2546 52.2613 13.6945 53.1143 14.3733 53.7935L47.1827 86.6243C48.0677 87.5114 49.2457 88.0001 50.5 88.0001C51.7543 88.0001 52.9322 87.5114 53.8142 86.6258L86.6267 53.7935C87.3055 53.1143 87.7456 52.2613 87.9161 51.3364C87.6866 51.8173 87.3904 52.2682 87.003 52.6559Z" fill="#010101"/>
<path d="M66.125 44.2501C64.9535 44.2501 63.8688 44.594 62.9306 45.1572L55.8429 38.0695C56.4059 37.1315 56.75 36.0468 56.75 34.8751C56.75 31.4281 53.9454 28.6251 50.5 28.6251C49.3441 28.6251 48.2741 28.9619 47.3443 29.5112L39.6764 21.8423L37.4675 24.0524L45.1352 31.7211C44.5866 32.6503 44.25 33.7198 44.25 34.8751C44.25 37.7792 46.25 40.2044 48.9375 40.9031V60.0971C46.25 60.7957 44.25 63.2209 44.25 66.1251C44.25 69.572 47.0546 72.3751 50.5 72.3751C53.9454 72.3751 56.75 69.572 56.75 66.1251C56.75 63.2209 54.75 60.7957 52.0625 60.0971V40.9031C52.6149 40.7594 53.1329 40.541 53.6153 40.2608L60.7392 47.3848C60.2042 48.3057 59.875 49.3604 59.875 50.5001C59.875 53.947 62.6796 56.7501 66.125 56.7501C69.5704 56.7501 72.375 53.947 72.375 50.5001C72.375 47.0531 69.5704 44.2501 66.125 44.2501Z" fill="white"/>
<path opacity="0.2" d="M14.3702 47.9439L47.1858 15.11C48.9497 13.3388 52.0472 13.3373 53.8173 15.1115L86.6267 47.9423C86.6267 47.9423 86.6267 47.9439 86.6298 47.9439C87.4183 48.7369 87.8703 49.7665 87.9619 50.8682C87.9727 50.7374 88 50.6101 88 50.4774C88 49.2269 87.5117 48.0497 86.6298 47.1626C86.6267 47.1626 86.6267 47.1611 86.6267 47.1611L53.8173 14.3303C52.0472 12.5561 48.9497 12.5576 47.1858 14.3288L14.3702 47.1626C13.4883 48.0497 13 49.2269 13 50.4774C13 50.61 13.0273 50.7372 13.0381 50.8678C13.1299 49.7661 13.5819 48.7368 14.3702 47.9439Z" fill="white"/>
<path d="M70.9651 46.5949C71.8329 47.6682 72.375 49.0152 72.375 50.5C72.375 53.947 69.5704 56.75 66.125 56.75C62.6795 56.75 59.875 53.947 59.875 50.5C59.875 49.3604 60.2042 48.3056 60.7392 47.3848L53.6152 40.2608C53.1329 40.541 52.6148 40.7594 52.0625 40.903V60.097C54.7499 60.7957 56.75 63.2209 56.75 66.125C56.75 69.572 53.9454 72.375 50.5 72.375C48.9016 72.375 47.4568 71.7542 46.3503 70.7633L58.0123 82.4252L82.3964 58.0262L70.9651 46.5949ZM55.8428 38.0695L62.9305 45.1572C63.8688 44.5939 64.9535 44.25 66.125 44.25C67.6096 44.25 68.957 44.7923 70.0306 45.6605L55.4129 31.0426L55.4053 31.0489C56.2348 32.1096 56.75 33.427 56.75 34.875C56.75 36.0467 56.4059 37.1314 55.8428 38.0695Z" fill="url(#paint0_linear_318_25)"/>
<path d="M86.6298 47.1626C86.6267 47.1626 86.6267 47.1611 86.6267 47.1611L53.8173 14.3303C52.0472 12.5561 48.9497 12.5576 47.1858 14.3288L14.3702 47.1626C13.4883 48.0497 13 49.2269 13 50.4774C13 51.7294 13.4883 52.9079 14.3733 53.7935L47.1827 86.6243C48.0677 87.5114 49.2457 88.0001 50.5 88.0001C51.7543 88.0001 52.9323 87.5114 53.8142 86.6258L86.6267 53.7935C87.5117 52.9079 88 51.7294 88 50.4774C88 49.2269 87.5117 48.0497 86.6298 47.1626Z" fill="url(#paint1_linear_318_25)"/>
</g>
<defs>
<linearGradient id="paint0_linear_318_25" x1="43.2164" y1="43.2378" x2="70.2081" y2="70.2294" gradientUnits="userSpaceOnUse">
<stop stop-color="#010101" stop-opacity="0.1"/>
<stop offset="1" stop-color="#010101" stop-opacity="0"/>
</linearGradient>
<linearGradient id="paint1_linear_318_25" x1="19.2932" y1="35.9373" x2="81.698" y2="65.0371" gradientUnits="userSpaceOnUse">
<stop stop-color="white" stop-opacity="0.2"/>
<stop offset="1" stop-color="white" stop-opacity="0"/>
</linearGradient>
<clipPath id="clip0_318_25">
<rect width="75" height="75" fill="white" transform="translate(13 13)"/>
</clipPath>
</defs>
</svg>
