<svg width="100" height="100" viewBox="0 0 100 100" fill="none" xmlns="http://www.w3.org/2000/svg">
<rect width="100" height="100" rx="15" fill="white"/>
<rect x="13" y="13" width="75" height="75" rx="3" fill="#F7DF1E"/>
<path fill-rule="evenodd" clip-rule="evenodd" d="M66.8242 46.3131C62.6186 47.3465 59.8694 50.5333 59.6003 54.6869C59.4091 57.6372 60.3467 60.3292 62.2219 62.2134C63.8578 63.8573 65.2986 64.6923 70.3944 66.9495C74.0192 68.5551 74.9226 69.4825 74.8158 71.4883C74.7686 72.3766 74.688 72.6236 74.2806 73.1289C74.0169 73.4559 73.3969 73.9316 72.903 74.1858C71.2234 75.05 68.2003 74.8916 66.4161 73.8459C65.4581 73.2845 64.337 72.2106 63.7439 71.2864C63.4736 70.8652 63.2289 70.5205 63.2003 70.5205C63.1111 70.5205 57.7458 73.665 57.6053 73.7995C57.5322 73.8695 57.6533 74.2326 57.8744 74.6064C60.0594 78.3 64.0156 80.6209 68.7253 80.9722C74.6531 81.4144 79.2239 79.3752 81.0901 75.4555C81.7539 74.0612 82.0983 72.1555 81.9809 70.5258C81.7451 67.2525 80.5848 65.0462 78.1231 63.1914C76.5189 61.9826 75.1569 61.2473 71.8898 59.8264C68.168 58.2078 67.3158 57.6369 66.8081 56.4217C66.3511 55.3281 66.5609 53.994 67.3273 53.1211C68.1917 52.1362 70.4889 51.8411 71.9153 52.5315C72.5986 52.8623 73.4442 53.6664 74.1558 54.662L74.4797 55.1151L77.1611 53.4037C78.6359 52.4625 79.8437 51.6122 79.845 51.5142C79.8487 51.2509 78.5425 49.5245 77.7787 48.7834C75.7603 46.8247 73.3303 45.9776 69.7947 46.0004C68.635 46.0081 67.6397 46.1128 66.8242 46.3131ZM46.5316 59.3065L46.4881 72.3173L46.1434 72.9617C45.4416 74.2739 44.2894 74.8351 42.5773 74.6992C40.9734 74.5719 39.8345 73.738 38.7908 71.9267C38.568 71.54 38.3667 71.1981 38.3436 71.1669C38.3206 71.1356 36.9962 71.9014 35.4008 72.8686L32.5 74.6272L32.9181 75.3473C34.4102 77.917 36.4184 79.5722 39.1444 80.4783C40.2952 80.8609 40.6052 80.8945 43.0506 80.9025C45.1334 80.9092 45.9236 80.8512 46.7112 80.6337C49.8947 79.7547 52.0117 77.7706 53.0425 74.7003C53.6808 72.7989 53.7698 70.5842 53.7203 57.8642L53.6756 46.3798L50.1253 46.3378L46.5748 46.2959L46.5316 59.3065Z" fill="black"/>
</svg>
